<svg width="23" height="15" viewBox="0 0 23 15" fill="none" xmlns="http://www.w3.org/2000/svg">
<path d="M11.2377 2.60648C8.83781 2.60648 7.49532 2.01687 5.13351 1.98263C5.05399 1.98179 5.01429 1.88909 5.073 1.83731C6.75759 0.347419 10.004 0 11.1323 0C12.08 0 15.2236 0.274762 17.0533 1.82729C17.1155 1.87991 17.074 1.97595 16.9911 1.97428C14.6232 1.93753 14.606 2.60564 11.2368 2.60564L11.2377 2.60648Z" fill="white"/>
<path fill-rule="evenodd" clip-rule="evenodd" d="M7.53087 14.7767H0.365018C0.225041 14.7767 0.13864 14.6297 0.20344 14.5103C1.03536 12.9853 0.736452 11.9105 0.402129 10.7104C0.155052 9.82259 -0.111877 8.86636 0.0487993 7.6095C0.478152 5.18842 1.63836 3.97578 3.97947 3.39369C5.1941 3.09136 6.63934 3.32353 8.13731 3.56405C9.17485 3.73025 10.2365 3.90062 11.2654 3.90062C12.0326 3.90062 12.9595 3.75864 13.9271 3.61082C15.4483 3.37782 17.0699 3.13062 18.3251 3.39369C20.7405 3.90062 22.0328 5.28363 22.1659 7.48089C22.254 8.94404 22.0052 9.97796 21.7927 10.859C21.4894 12.1159 21.2623 13.0621 22.1961 14.4978C22.2739 14.6172 22.1883 14.7775 22.0424 14.7775H14.702C14.5378 14.7775 14.3944 14.6723 14.3409 14.522C14.0783 13.7896 13.1574 11.7318 11.1168 11.7318C9.07638 11.7318 8.15547 13.7896 7.89198 14.522C7.8384 14.6715 7.69414 14.7775 7.53087 14.7775V14.7767ZM6.483 11.3476C5.04809 12.1635 3.18212 12.151 2.45821 10.5392C1.63661 8.7077 2.43486 6.11878 4.74833 5.47821C7.1715 4.80758 9.51611 5.13496 9.42796 6.90131C9.36232 8.21414 8.16066 10.3938 6.483 11.3468V11.3476ZM19.8896 10.5392C19.1665 12.151 17.2996 12.1627 15.8648 11.3476C14.1871 10.3938 12.9855 8.21414 12.9198 6.90213C12.8317 5.1358 15.1762 4.80842 17.5994 5.47904C19.912 6.11961 20.7111 8.70852 19.8896 10.54V10.5392Z" fill="white"/>
</svg>
